<svg enable-background="new 0 0 110 110" height="512" viewBox="0 0 110 110" width="512" xmlns="http://www.w3.org/2000/svg"><circle cx="55" cy="54.153" fill="#ededed" r="42.883"/><g fill="#4da0dc"><path d="m97.0188522 45.5581627c-.0379639-.0227814-.0835266-.0455627-.1214981-.0607491-.1364975-.0453796-.2502213-.0605659-.3867188-.1289101-.1670609-.0911217-.3187485-.2504044-.531189-.1364975-.121315.3945007-.1289062.8040009-.2504044 1.1985054-.068161.2126198-.1440964.7664032-.4398804.7360306-.0835266-.1290932-.0759354-.2655945-.1290894-.4096909-.0529709-.174469-.1289062-.2579994-.1516876-.4324684-.0605698-.3337517-.0301895-.6902847-.1516953-1.0166283-.1440887-.3945007-.1061249-.7738152-.227623-1.1683159-.1364975-.4322815-.2502213-.7204742-.2426224-1.175724.0075912-.6297188.0227737-1.2668495 0-1.8965683-.0075989-.3565331-.0455627-.8345642-.1442871-1.1759109-.0757446-.2654076-.2350311-.5385933-.4019089-.7510338-.1366806-.174469-.4400635-.3337517-.4324646-.5689697.3185654-.1289062 1.0014343-.2730026 1.4868774-.174469-.4854431-1.2290649-1.0242233-2.4275703-1.6233826-3.5958862-.3641281-.1592827-.6828766-.295784-.9256897-.6449089-.2502213-.3641281-.3641205-.7965965-.5993423-1.168129-.1364975-.2126236-.3413467-.3491249-.5082245-.531189-.2654037-.295784-.4400635-.5917511-.7738113-.826786-.3717194-.2655926-.819191-.3187485-1.1985092-.5615616-.5917511-.3793144-1.3125916-.9860687-1.5248489-1.6689434-.0987167-.3109703-.1820602-.5765648-.3641205-.8419743-.0987167-.1516876-.2580032-.6297188-.4400635-.6752815-.1365051.2200317-.0607529.6600952-.0607529.9103165.0151901.5841579.4172821 1.0470028.6904678 1.5324421.2274399.4096889.2654114.6373138.2502213 1.1001587 0 .2654076-.0379639.5082207.1594696.7130642.121315.1365013.2502213.1516876.2805939.3565331.0227814.1440964-.0151825.2579994.0303802.4096909.0605621.1972504.1592789.3413429.174469.5613747.0151825.3033791-.0151901.6145325-.0151901.9179115 0 .3111534.0075912.6145325.0075912.9179077-.0075912.2959709-.0985336.6676903.1289139.8953133.1366806.1365013.3793106.1666908.5311813.2881889.2046585.1516914.2730026.3717232.295784.6145363.0227814.3869057.0683441.9860649-.0303726 1.350193-.0683441.2579994-.3109741.3567162-.4550629.5615616-.1670609.235218-.250412.470253-.2731934.766037-.0227814.3111534.0075989.6373138.0075989.9482841 0 .3643112.0379639.7512169.0075912 1.115345-.0151901.2274399-.121315.7510338-.3261566.9027214-.1214981.0911255-.3339386.0379677-.4628448.0379677-.3413467-.0075912-.7282562.0605659-1.0544128 0-.5084076-.0911217-.8117828-.5613747-1.3353729-.6676865-.1896591.3717194-.3033829.8573456-.4095078 1.2594414-.053154.2122498-.0759354.3945007-.0683441.6145325.0075989.4246902.1137238 1.046814.0075989 1.4489098-.0607529.2124405-.1896591.2881889-.2883759.4854393-.1818771.3337517-.121315.7586288-.3033752 1.1001587-.3565369.6675034-.9330978 1.1529427-1.4035416 1.7219162-.2274399.2731857-.3867188.5235939-.523407.8421555-.1061249.2578163-.1516876.8345642-.4322815.9938469-.348938.2048454-.7890015-.2200317-.9862518-.4552498-.2048492-.2428131-.4324722-.4778442-.4552536-.8117828-.0151901-.2276268-.053154-.523407-.0303726-.7358475.0379639-.3413429.455246-.9027214 0-1.2060966-.5613785.5082207-.0605621 1.4109421-.5310059 1.9495392-.1896515.1214981-.3793106.2579994-.5461884.409687-.0607452.1592827-.1668777.2731857-.3261566.3263435-.2124405.0833435-.5461884.0074081-.7662201.0074081-.5917511 0-1.2062836.053154-1.7980347.0075951-.3489456-.0301895-.5385971-.2730026-.7888184-.4930344-.1896591-.1820641-.3945007-.348938-.6145325-.5006294-.1518784-.0227814-.2655945-.0987167-.3337555-.2428131-.227623-.3261566-.3187485-.6750946-.6069336-.9710655-.1820679-.0911217-.2883759-.227623-.3339386-.4172821.0303726-.2124367.0759354-.4324684.1214981-.644722.0377808-.3415298.0377808-.5537834-.3111572-.6297188-.3261566-.0759354-.6675034-.0683441-1.0012512-.0607491-.2731934 0-.5463791.0379677-.8117905-.0455627-.1820602-.0605659-.3565292-.1516876-.5158081-.2578163-.129097-.0227814-.2655945-.0303726-.3945007-.0151863-.6221313-.0151863-1.2518539.0075951-1.8813858 0-.4932175 0-.9558792.1137199-1.4566879.1061287-.7814102-.0075951-1.7598877-.2046623-2.412384.3187485-.3717194.295784-.6523209.7358475-1.0090332 1.0620041-.1970673.174469-.6295395.3413467-.6067581.652317.0225983.409687.644722.5311852.9255066.5689697.3869095.053154.4626541.2731857.4324646.6980629-.0607452.6902847-1.1077499 1.9800987.2350388 2.0330696.227623.0075951.5309982.0151863.7662201-.0075951.4096909-.0379677.6676865-.3869057.9710617-.6069374.2124405-.1061249.4172821-.1970673.6297226-.2805977.295784-.0987167.5537872-.2655907.773819-.5006256.402092-.348938.7888107-.8725319 1.274437-1.1305313.6449127-.3337517 1.6157913-.4322853 2.3138504-.2198486-.159462.9103165-1.0773773 1.2061005-1.8511887 1.4565048-.523407.1668777-1.0544128.3489418-1.0620041.9710655 0 .3033791-.0303726.531002-.068161.8345642-.0455627.3337517.0605698.7586288-.2428131 1.001255-.3641205.2959709-1.1151581.1366882-1.5552216.1215019-.6373138-.0303764-.8497543.5537834-1.3427887.872345-.3261566.2048454-.6069336.3945007-1.0014343.2276268-.348938-.1516876-.5991592-.3869095-.8723488-.6525002-.2504082-.2352219-.3413467-.3869095-.3261604-.7586288 0-.235218-.0227814-.3945007-.1063118-.6219406-.1137199-.3415298-.3793106-.6373138-.4930305-.9634743-.1366882-.1366844-.1592827-.3111534-.0607529-.5084038.2048454-.295784.3869095-.6143494.5385971-.9406929-.2730026-.1896553-.5765648-.2881889-.9255028-.2124367-.3869057.0835304-.4778481.2504082-.6826897.5613785-.1516876.227623-.1214981.235218-.4704399.1896553-.2124367-.0303764-.4476547-.0757523-.6523132-.1365013-.364315-.1061249-.5461922-.2731857-.834568-.5006256-.3641243-.2807846-.7282524-.0455627-1.1455345.0075912-.2807808.0301895-.7890015.0757523-1.046814-.0455627-.2428131-.113903-.4628448-.3565331-.6752853-.5158119-.2881889-.2200317-.5006256-.4400635-.8041878-.6221275-.2350349-.1440964-.5158157-.5084076-.7812233-.5841599-.5160027-.1440926-.7208443.6069412-.9029083.9255066-.121315.2048416-.2048454.2731857-.2276268.531002-.0225945.227623.0379715.402092-.1061249.6221237-.1365013.2124405-.531002.4476585-.7434387.5613785-.3413467.1820641-.7586288.3869057-1.1303482.227623-.2807808-.1289062-.4778481-.348938-.5689697-.6297188-.0985336-.3109703-.2276268-.6067543-.3337517-.9179077-.1139069-.3261604-.3415337-.5461922-.5008163-.8571625-.0529671-.1063118-.0455589-.2428131-.1668739-.3187485-.2654076-.1896553-.8343811-.0531578-1.1379433-.0453758-.3337517 0-.7130623.0151863-1.0316277.1289062-.3491249.1365013-.6676903.5537834-1.0242233.7206573-.3185616.1440964-1.107563-.0683403-1.0090332.470253.0683441.3945007.3187523.8041916.4932213 1.1609077.2426262.5006294.531002 1.0088501.8193741 1.4791031.2274437.3643112.6067543.584156.8343811.9560623.295784.4930344.3035622.8343811.9710655.819191.4248772-.0151863.8041878-.2048416 1.2364731-.2124367.4172821-.0151863.8497543.0075951 1.2670364 0 .2198448 0 .4172821-.0074081.6221237.0683441.1061287.0379677.2046585.0987167.3109703.1289062.1365013.0379677.4096909.0531578.5689735 0 .0909386-.0301895.1820602-.1516876.2881889-.1592827.3491249-.0453758.6373138.4096909.8041878.6449089.2048454.2881889.0531578.7130661.2655945.9634705.3185654.3869095 1.1151619-.1214981 1.4337234.3943176.1365013.2278099.0303764.6828766.0303764.9256897 0 .2654076-.0075951.531002-.0075951.7964096 0 .1290932-.0227814.2883759.0909386.3793144.2124405.1670609.8497543.0379677 1.0773773-.0377846.295784-.0987167.2350349-.235218.3945007-.4476585-.0151863-.1289062.0605659-.1972504.2048454-.1972504.1061287.0151901.2046585.0379715.3109703.0531578.3337517.1896553.2200317.8647537.2200317 1.1759109 0 .4474716-.0227814.8951263-.0911217 1.3350067-.0303764.1822472-.1137238.3719025-.1668777.5387802-.1668739.4778442-.1440964.9558754-.1820641 1.4413185-.0455627.5689697-.3185616.7358437-.7434387 1.0621872-.3869095.295784-.4854393.644722-.4930344 1.122757 0 .1213112-.0303764.2729988-.0075951.3945007.0757523.3945007.4246902.2578125.7434425.1592789.0303726-.0151825.758625-.402092.8343773-.6221237.0075951-.0531578.0075951-.0987167.0075951-.1516876-.0985336-.1820641-.0529709-.3337517.1290932-.4400635.3945007 0 .705471.174469.9330978.5082207.1668739.2124367.3185616.4248734.4550629.6525002.1594696.303566.1442795.6373138.5461922.7054749.4476547.0835266 1.3353767-.3261642 1.5780029-.7206612.1668739-.2731895.1063118-.5689697.0987167-.8875351 0-.2883759-.0987167-.6449089.1137199-.8725319.3035622-.1516914.5765648-.3413467.826973-.5689735.1896553-.2122498.4248734-.2957802.7054672-.2426262.2276306 0 .6751022-.0607491.8495712.1061249.2352142.2276268.1442795.8495674.280777 1.1531296.1668777.3717194.3945007.644722.7130661.8951302.2655945.2124367.3793182.5160027.6449127.7130623.3565292.2731934.5461884.2807846.6219406.7512207.0835266.5461884.3491211 1.0999756.7132492 1.5246658.1289062.1518707.5841599.35672.6143494.5767517.0911179.644722-1.3350067.5006256-1.6157913.4246902-.6297226-.1744766-.8419724-.6751022-1.1303482-1.2136993-.3261566-.629715-.697876-1.1607208-1.1379395-1.7145004-.523407.3185654-.2124405 1.0316238-.5310059 1.4716873-.2959671.3945084-.8421555.4550705-1.282032.4398804-.4856262-.0149994-.9482841-.0985336-1.4263153-.2122498-.4930344-.1289062-.9634743-.1214981-1.4716949-.1139069-.174469.2428131-.121315.6980667-.1061249.9786606.0225945.4172821.1592827.6600952.470253.9330978.3033752.2655945.705471.75103 1.0923767.9029083.1668777.0605621.3261604.0301895.4932213.0681534.3717194.0759354.6371269.2504044.9556923.4400635.2126236.1289062.5539665.174469.6449051.4322891.0835304.2352142.0683441.7890015.0075951 1.0318146-.1061249.4248734-.531002.5537796-.9027214.629715-.348938.0683441-.6525002.2881927-1.001442.3337555-.4930344.0683441-1.1379395.0379639-1.6233788-.0227814-.3641281-.0529709-.5613785-.2807846-.8345642-.4854431-.3717232-.2655945-.8799438-.3565292-1.0847855-.7890015-.1744728-.3565292-.2276268-.7206573-.5537834-.9938431-.2883759-.2502213-.7130661-.3261642-1.0545959-.470253-.4550667-.1896591-.9027252-.4324722-1.1531296-.8725357-.1668777-.295784-.2350349-.7282562-.2881889-1.0620041-.0151901-.0987167.0303726-.7284393-.0303764-.9180984-.0911255-.2350311-.4552498-.4246902-.6675034-.5006256-.3415298-.1137161-.5385971.1442795-.8725319.0683441-.4626617-.106308-.7965965-.3945007-1.0088501-.8041916-.1896553-.3565292-.3641243-.7206573-.5615616-1.0771866-.121315-.2124405-.2881889-.4400673-.3565331-.6676903-.0681572-.2502213-.0075951-.5234108-.0529709-.773632-.0303726-.1594658-.1290932-.2959671-.1668739-.4476547-.0683441-.2504082-.0379715-.4704399.0377808-.7358475.1820641-.6449089.7282524-1.1759109.880127-1.8284111.1820641-.7964096-.5613747-1.4261322-1.0773773-1.9041634-.3793144-.3565331-.3869057-.8647537-.6750946-1.2592545-.1516914-.2124367-.4704399-.2276268-.6978798-.3185654-.2655945-.113903-.4932175-.1290894-.7586288-.1972504-.402092-.0987167-.4400635-.5158119-.7360306-.7510338-.2426262-.1972504-.6219406-.227623-.8419724-.4552498-.1972504-.2048454-.3111572-.5385971-.4856262-.7738152-.2805939-.3641243-.584156-.7206573-.8571587-1.0923805-.1820641-.2504044-.4096909-.5159988-.6600952-.6826897-.1592827-.1063118-.3337517-.1518745-.5006294-.2579994-.1440926-.0987167-.2579994-.2579994-.409687-.3413467-.3565331-.2200317-.7130661-.053154-1.0695992.0529709-.235218.0607491-.4172821.0607491-.6600952.0227814-.523407-.0909386-1.0695953-.0301895-1.5854111-.1516876-.9862518-.2200317-1.7372856-.8571587-2.6703835-1.2061005-.3641281-.1290932-.6904716-.0759354-1.0697861-.0759354-.4019089.0075951-.8040047-.0303764-1.1985054.0151863-.2731857.0377846-.5385933.1061287-.8117828.1440964-.3337517.0455627-.6523132.0151863-.9862518.0303726-.3641281.0227814-.7282524.3109703-.9558792.5841599-.1061249.121315-.1516876.3033752-.235218.4400635-.1440964.2274399-.3261566.4170952-.5460052.5991592-.3643112.3035622-.6525002.5084076-1.115345.4780312-.3185635-.0227814-.5082207.0377846-.7812233.1972504-.3263435.1820641-.6525002.3261604-.8345642.6750984-.1516876.2959671-.1820621.6297188-.3869076.9027214-.2276249.3035622-.5841579.5993462-.8421574.8725319-.1668758.1668777-.3337517.2881927-.4096889.5158157-.0909386.2881889.0303745.5841599-.0151882.8649406-.0150013.0833435-.1666889.3033752-.1970654.348938-.1442795.2426262-.2504063.523407-.3111553.8041916-.0985317.4095001-.1365013.8571587-.1440945 1.2820358-.0151882.6750946-.0759373 1.4109421-.0075932 2.0862236.0759373.7206612.5385952 1.4337234.7890015 2.0936356.1137199.3035622.2881889.409687.4628448.6449051.1592827.2200317.1970654.4930382.3793144.7208443.2046585.2502213.4930325.4398804.705471.6978836.3413448.4096832.6826897.7890015 1.0544109 1.1757202.2655926.2807846.4400635.6145325.6145325.9634705.174469.3263474.2655926.7434387.5461903.9938507.0835304.0683441.2048454.1137161.2805939.1896515.1442795.1592865.2048454.4476624.2580032.6449127.1364975.4854355.1896553.9179077.4780312 1.3503799.1820602.2805939.4248734.5385895.5158119.872345.0757523.2805939.0835304.5461884.1896591.8193741.1972504.5385971.227623.8647537-.3109703 1.1833191-.1972504.1139069-.4248772.2428131-.6449089.303566-.2124367.053154-.6373138-.0151901-.8117828.1289062-.2805958.2124405-.2578144.9406891-.2124367 1.2518463.053154.3337479.1896553.6295319.1972504.9708786.0151863.3945007-.1592827.59935-.2578163.948288-.0607491.2126236-.0455608.3415298-.1594677.531189-.1666889.2957764-.4854393.4930267-.7508488.697876-.7586269.5841599-1.6995029.7890015-2.4807262 1.3427811-.3793144.2730026-.7965965.5082245-1.0545959.895134-.1440945.2124329-.3641262.4780273-.4172821.7206573-.060564.3111572.0303745.7132492.0303745 1.0318146 0 .1592789.0227814.3793106-.0379677.5310059-.1061268.2959671-.3413467.3337479-.5689716.4856186-.3945007.2654114-.235033.7510376-.2426262 1.1683197 0 .24263.0985317.8343811.523407.7812195.1668758.1063156.3261585.2276306.4778481.35672.2504063.1516876.5008125.3033752.7434387.4550629.2504063.2276306.295969.5841599.5615635.8117905.174469.098526.3413448.1972504.5082207.3033752.1440945.106308.2881889.2124329.4322834.3185654.1974373.0455627.3870926.106308.5767498.1896515.2198467.1518784.4398785.3111572.6599102.4628448.3489399.2048492.6828766.4096909 1.0318146.6145325.2502232.1516876.5385952.3261566.8191929.4246902.174469.0151901.3261566.075943.4628448.1896591.1137199.1518707.235218.2959671.3717194.4248734.4172821.4172821.7738152.5765686 1.3579712.5537872.644722-.0151901 1.4868813-.1137238 2.0482597.2731857.1972504.1365051.3869057.3641281.6297188.4400635.3641281.121315.7586288-.0227814 1.1075668-.0683441.5537834-.0759354 1.1303482-.0075912 1.6917229-.0227814.3641281-.0151825.4400635.1365051.7738152.2655945.1820641.0605621.3641281.0985336.5613785.1137238.1820641.0303726.3413467.121315.470253.2731857.4020958.2805939.7282524.3109665 1.1986923.295784.3565292-.0227814.5082207-.1440964.8269691-.3033752.1365013-.0531616.2654076-.1139069.4020958-.1668777.174469-.1518784.3641243-.2883759.5611916-.4020996.7132492-.3491211 1.0090332-1.2366562 1.7372856-1.6235657.4704399-.2578125 1.1305313-.121315 1.6387558-.121315.1972504.0075989.3945007 0 .5917511 0 .7888145 0 1.4944725.0075989 2.2682877-.1592789.8495674-.1896591 1.7598839.0075912 2.6248207-.0227814.6675034-.0303726 1.1986923-.295784 1.8054466-.5084076.5008125-.166687.9406891-.1289062 1.4490967-.1289062.5385971 0 .8419724-.1592789 1.2364731-.4854431.2807808-.227623.5385971-.402092.880127-.5461884.4322853-.1820602.8040047-.2655945 1.2744446-.3035583.5006256-.0379715.7738113-.1289062 1.0923767-.5461884-.053154-.1668777-.5613747-.1516876-.7434387-.2048492-.4172821-.1289062-.8421593-.2730026-1.2744446-.3793106-.348938-.0909424-.6221237-.0529709-.933094-.2352219-.3339386-.1970596-.7208443-.3185654-1.0849724-.4474716-.523407-.1972504-.9938469-.4628448-1.4716911-.75103-.3185654-.2048492-.2276268-.2731857-.0075951-.5310059.3717194-.4400635.4324684-1.0773773.4172821-1.6387558-.0075951-.6145325-.1440964-1.1605301-.0151863-1.7598801.0759354-.3641281.3033752-.6449051.4552498-.9862518.1516876-.3491211.1970634-.6145325.1896553-1.0090332-.0075912-.295784-.0987167-.697876.0453796-.9634705.1594658-.2881927.5008125-.4324722.6221237-.7586288.1214981-.3337555.0227814-.7130661.0455627-1.0620041.0227814-.4400635.2426262-.773819.2200317-1.2214737-.0379677-.5689697.3261566-1.1909103.9860687-.9558792.4400635.1516876.2579994.9710693.2579994 1.3503799 0 .4704361.0911255 1.0620041-.0151863 1.5324402-.0531578.2352219-.2350349.3793182-.3261604.5917587-.1516876.3337479-.0683403.7738113-.0683403 1.1379395 0 .6373138-.0605659 1.274437.0987167 1.8965683.0909386.3337479.1440926.6221237.0909386.9710617-.0833435.5537872-.3869057.8571625-.6675034 1.3124161-.1820641.295784-.3869057.5689697-.5841599.8571548-.0455589.0683441-.1592789.174469-.1516876.2807846.0151901.1668777.2881889.3869095.4019089.5006256.1139069.1139069.2276268.1972504.3111572.3339386.0985336.174469.0607491.1970673.2428131.3033752.3943176.24263.99366.0379715 1.3881607-.0835266.3717232-.121315.8193779-.0985336 1.2062874-.0757523.2048416.0075912.3869057.0529709.5765648.1364975.174469.0757523.348938.2428131.523407.2805939.3717194.0911255.9255028.007782 1.2896309.0151901.1594658 0 .3187485.0151901.4780273-.0074081.2730026-.0303726.4930344-.1974335.7586288-.2655945.3945007-.0985336.8419724-.0911255 1.244072-.1516876.3641205-.0607529.6904678-.1746521 1.0545959-.1896591.3565292-.0227814.6902847-.2504044 1.0088501-.402092.4628372-.2124405.682869-.4096909 1.0318146-.7510376.2048416-.1972504.4400635-.3945007.5082169-.682869.053154-.1970673.0151901-.417099.0151901-.6219482 0-.227623.1139069-.7965927-.0379715-.9938431-.1516876-.2048416-.7130661-.106308-.9103165-.0985336-.5006256.0074081-1.0620041-.106308-1.1379395-.705658-.0303726-.295784-.0227814-.455246-.1516876-.7282486-.1516876-.3185654-.053154-.6978836-.2200317-1.001442-.1440964-.2654114-.4854431-.3337555-.5613785-.6295319-.053154-.1974411-.0151901-.5084076-.0075912-.7208481.0151825-.295784.1289062-.4854431.2959671-.7358475.2350311-.3565292.3945007-.470253.8040009-.4854355.1972504-.0075989.5613785-.075943.6752853.1440887.1137238.2124405-.0683441.5537872-.0911255.773819-.0379639.2578125-.0757523.5993423 0 .8419724.0911255.3035583.424881.3945007.5689697.6600952.0759354.1440964.0759354.3033752.174469.455246.0531616.0909424.1442795.1668777.2048492.2578201.1820602.2655945.4172821.4628448.6069336.7282486.2428131.3415298.3489456.5537872.7966003.6980667.295784.0985336.5841599.227623.9027176.2428131.4172821.0225906.8421631 0 1.2592621-.0151901.1518707 0 .2655869-.0151901.4096832.0303726.174469.0605698.250412.24263.424881.3109741.3111496.1137161.6145325-.0987167.9482803-.1139069.3413467-.0151825.7282562.1518784.8649368.4856262.1592865.402092.1365051.8799438.1137238 1.297226-.0075912.1440964-.0303726.2504044-.0075912.3869019.0835266.4398804.4476547.4398804.7206573.6902847.2048416.1896591.0759354.6904755-.0227814.9330978-.0833435.182251-.2048416.2352219-.2578125.4552536-.0531616.1972504 0 .4096909-.0075989.5993423-.0379639.9103165-.6752777 1.6537552-.6373138 2.5792618.0151901.3641281.0759354.8345642.2276306 1.1683197.1896515.4248734.629715.4626541.872345.0227814.1139069-.2048492.0455627-.2806015.0455627-.470253 0-.2200317.0833435-.4400635.174469-.6373138.1896591-.4096909.4096909-.652504.4552536-1.1077576.0225906-.219841.0605621-.4854355.1364975-.7054672.1137238-.3109741.2428131-.3337555.5537796-.3943176.478035-.0987167 1.0090408-.182251 1.4641037-.3719025.402092-.1668777.7814102-.5082245 1.001442-.8647537.1896515-.3261642.2655945-.5765686.6828766-.5385971.4170914.0301895.872345.0683441 1.1909103-.2124405.1366882-.106308.2352142-.2731857.3413467-.402092.2655945-.3109741.5309982-.5310059.8725281-.7358475.2730026-.6373138.8343811-.9255066 1.2820358-1.4187241.121315-.1440964.2276306-.2578125.3337555-.417099.1366882-.227623.1592789-.4856262.280777-.7132492.1137238-.2046585.3565369-.4854431.6371307-.4626617 1.1683197.0757523.227623 1.7752609.5008163 2.3744202.0681534.1516876.2957764.2579956.5006256.2655945 6.7139282-7.5710907 10.7952576-17.5243759 10.7952576-28.4409409.0000007-2.9435726-.2957833-5.8186146-.8647607-8.5953098z"/><path d="m86.9518509 26.5696926c-.1972504-.0683441-.3717194-.2198467-.5689697-.2654095-.1516876-.0303745-.3185654.0151882-.4704361-.0379677-.1972504-.0683441-.2578125-.1972504-.3717194-.3565331-.2198486-.295969-.5917511-.470438-.5917511-.8573456-.0074081-.1668758-.0453796-.409502-.0151901-.5689697.0379715-.1820641.2048416-.2805958.2504044-.4550667-.1364975-.2655926-.9027176-.1214981-1.1379395-.0379677-.24263.0835304-.4248734.1972504-.697876.1440945-.348938-.0757523-.652504-.4398785-.8875351-.6902847-.1214981-.1440945-.2124405-.3945007-.3793182-.4932194-.2655869-.1516876-.6069336-.1668758-.8801193-.3185635-.3489456-.1896572-.6978836-.4096889-.9179153-.7434406-.1364975-.1896572-.2504044-.3945007-.402092-.5841579-.2124405-.2654076-.523407-.3717194-.7890015-.5765648-.1516876-.1213131-.2730026-.2807808-.4172821-.409687-.3109741-.2730026-.6523209-.2578163-1.0164413-.4248772-.2276306-.0985317-.3945007-.2274399-.5917511-.3793125-.2352219-.181879-.4628448-.2881908-.7434464-.3945026-.4324646-.1666889-.8193741-.3413448-1.1910934-.6143475-.1592865-.113905-.2504044-.1896553-.4096909-.2428112-.3413467-.0985336-.5613785-.3337517-.8571625-.5082226-.227623-.1366863-.4248734-.2504063-.6373062-.409687-.1744766-.1440964-.3261642-.1896572-.4172897-.3945026-.0605621-.1289062-.0909348-.4172821-.2274399-.4778461-.1138992-.0531559-.2428055.0151882-.3719025-.0455608-.24263-.1215-.3715363-.3035622-.523407-.5160007-.1365051-.1896572-.2502213-.2122526-.4474716-.3109713-.2124405-.0987177-.4020996-.2428122-.59935-.3641262-.3337479-.1896563-.348938-.4854403-.4400635-.8421574-.0303726-.1289082-.0607452-.2578154-.0909348-.3867226-4.7034531-1.767662-9.7940025-2.7387276-15.1119881-2.7387276-2.3971939 0-4.7414207.1972513-7.0324898.5765648-.007412.0151873-.0225983.0303745-.0377846.0455618-.1518745.1440954-.2883759.2200317-.3263435.4398785-.0303764.1972504.0303764.409688.0151863.6069393-.0151863.1668758-.0833435.4552507-.235218.5537834-.1137199.0683432-.3641281.0683432-.5006256.1214981-.1820641.0681581-.3337517.1970654-.4778481.3185644-.1442795.1137199-.3263435.1668758-.4324684.3185644-.1063118.1518736-.1215019.3415308-.1440964.5234089-.0379677.2276249-.0987167.3641262-.2504044.5311871-.2048454.2274408-.1516914.5006275-.0531578.7890034.1063118.2881889.3035622.5611916.4932175.7964096.1289101.1670609.1137238.1518745.1668777.3111553.053154.1289082-.0227814.0681591.1137199.1592827.2655945.174469.6069374.0227814.8649406.23522.1137199.0909386.1896553.2122517.3185616.2881889.1137199.0683422.2200317.0833454.3337517.1516876.2428131.1365013.3489418.531004.5006294.7586288.1518745.2428131.0759354.4324684.113903.705471.0607529.4780312.4550667.5689716.9027252.6069393.2048416.0227814.4780312-.0531559.6752815.0151882.0833435.0227795.2502213.2124367.2730026.2276249.0987167.0833454.3261566.1820621.3793144.3033772.0303726.0531559 0 .1670609 0 .2124367-.0151901.1746559.0075912.531002-.1516914.6676884-.053154.0455627-.2579994.0985336-.3109703.121315-.1820641.0835304-.5993462.1896572-.7056541.3565331-.1365013.1896553.0151863.4248753.113903.5917511.1516876.2655945.2654076.4172821.5917511.4780312.1289101.0303745.295784.0529709.4246902-.0075932.1290932-.0683441.1972504-.2124386.3339386-.2655945.121315-.0531559.2730026-.060564.4020958-.0835304.1213112-.0225945.2350311-.0377827.3261566-.1289062.0757523-.060751.1137199-.1820641.1896553-.23522.1440964-.1137199.948288-.1970654 1.0166283-.0303745.0833473.174654.0074081.6071243-.1063118.7512188-.1440926.174469-.2730026.1896572-.2807808.4322853-.0151863.4476566.1974373.6525002.35672 1.0394077-.5008125.4096889-1.0470047.295784-1.6311607.3109703-.1896591.0075951-.4324684.0455627-.5841599.1594677-.174469.1289082-.1440926.2805958-.0605621.4474716.1213112.2580013.3109703.5689716.4854393.7890034.0987167.1289062.2124367.2655926.3717194.3109703.2881889.0835304.6904716.0303745.9862518.0227814.3869095-.0075951.7586288-.1061268 1.1455383-.0681591.2655907.0301895.6826897.1896572.9027214-.0379677.0911217-.0911236.1137199-.2579994.2124367-.3413448.1061287-.0911255.2579994-.0835304.3869095-.0835304.2578125.0075932.3565331-.0075951.5461884-.1820641.3185654-.2731876.7586288-.1214981 1.1227531-.2655945.1290932-.0455608.2200317-.1213131.3565331-.1668758.1820641-.060564.3641281-.0531559.5537834-.0531559.2883759 0 .5841599.060751.8497505-.0757504.0985336-.0531559.1592827-.121315.2730026-.1442795.1290932-.0301895.2807808.0077782.4172821.0077782.174469-.0077782.3187523-.0379677.4856262-.0759373.2805977-.0759373.5839729-.0911236.819191-.2579994.2655945-.1896572.2124405-.5385971.2048454-.8419724-.0075951-.1290932-.0075951-.23522-.0455627-.3565331-.0453758-.1440945-.1516876-.2504063-.1818771-.3869076.697876-.0911255 1.4185371.0301895 2.1240082-.0531559.4704399-.0607491 1.1303482-.5689716.8649406-1.0847855-.0911255-.1594677-.2276268-.3413467-.3945007-.4248772-.1972504-.0909386-.4704399-.0227795-.6828766-.0227795-.2502213.0075932-.6069412.0683422-.8343811-.0681591-.3111534-.2048435-.4476547-.6145325-.8649368-.6676884-.2730026-.0379677-.5537834-.1213131-.8041916-.2655926-.1440926-.0833454-.2654076-.2124386-.3563461-.3489399-.1063118-.1592827-.1290932-.2048435-.0531578-.3641262.1061287-.2124386.4172821-.3337517.6221275-.4248753.1896553-.0833454.3033791-.0909405.5082207-.0985336.1820641 0 .3793144.0379677.5537834-.0379677.1440964-.060751.1516876-.1137199.2578163-.2200317.2579994-.2578163 1.0090332-.1440945 1.3427849-.1289082.3035622.0075932.6221275.0607491.9179077.0303745.1063118-.0151863.2352219-.0759373.3415298-.0683422.1896591.0151863.3261642.1820621.4550705.2883739.1442795.1213131.227623.1896572.4172821.1592827.2048416-.0379696.402092-.1289082.6221237-.0835304.2428131.0607491.295784.3187485.402092.5006275.1137238.1896572.2578201.3035622.4096909.4476566.3033752.2731876.4246902.470438.4322815.8877201-.3869019.2122536-1.0544052.2881889-1.2972183.6523151-.1289062.1896572-.1820679.531004-.1516876.7510338.0683441.5841599.8495636.6373138 1.3199997.6221275.2428131 0 .5689697-.0683441.8041916 0 .2200317.0681572.2881927.2730026.4248734.4322834.1818848.2126236.3565369.295969.6219406.3111572-.3109665.6219406-1.1531219 1.1683159-1.8585968 1.1227531-.4172821-.0303745-.8117828.0455627-1.2062836-.1668758-.2122574-.113905-.3945007-.2276249-.5385971-.4248753-.0833435-.1137199-.1061249-.1516895-.2578125-.1668758-.1214981-.0151882-.5084076-.0379696-.6373177.0151863-.0909386.0379696-.1668739.1440964-.2428093.1972504-.1820641.121315-.4400635.1440964-.5461922.3641281-.1061249.2124367-.1213112.531002-.1289062.7662201-.0151863.5082207.2881889.6675034.7282524.7282524.3033752.0455627.5917511.1592827.8951263.1744709.1518784.0151863.3111572-.0075951.4628448-.0075951.3641281 0 .7966003-.060564 1.1531296 0 .1972504.0379696.348938.1516895.5461884.2124386.24263.0833454.470253.0759373.7358475.0833454.2654114.0077782.4324722.0381527.6902847.1366863.1896591.0759373.3337555.0985317.5385971.0985317.9330978-.0225945 1.8663788-.0074081 2.7994766-.0074081.3641281 0 .7358475.0225964 1.0999756 0 .1061249-.0077782.3109665-.0835304.402092-.0077782.0909424.0911236.1364975.3719044.1972504.4856243.0757523.1516895.121315.2276268.1137238.3945026-.0075989.1440945-.0227814.2805958.0075912.4248753.0303726.1896572.1364975.3641262.1440964.5611916.0151825.3263435-.015007.3491249-.2350388.5993462-.1518707.1670609-.4172821.2124367-.6145325.3415298-.1896515.1213131-.3033752.2274399-.5385971.2502213-.1820602.0151882-.3567123.0075932-.5385895 0-.4096909-.0075932-.8345642.0531559-1.2442551.0303745-.2200317-.0075932-.4778442-.0683422-.6826935-.1440945-.2428131-.0835304-.4324646-.1061268-.6752777-.113905-.3185654-.0151882-.5613785-.0985336-.8343811-.2350349-.2655945-.1290913-.5689697-.2655926-.8649368-.2883739-.1972504-.0075932-.2806015-.0607491-.4476624-.174469-.0757523-.0529709-.166687-.1061268-.2426224-.1744709-.0379715-.0379677-.1440964-.1896553-.2048492-.2200298-.2655945-.1137218-.4930344.1214981-.6524963.3035622-.2502213.2805958-.4854431.5613766-.7510376.8343773-.121315.1215-.2122498.2276268-.3869095.2655945-.1592789.0303745-.4322815.0151882-.5991592-.0075932-.227623-.0455627-.3945007-.2276249-.5917511-.3565331-.235218-.1592827-.4172821-.2428131-.6980629-.2428131h-1.2972221c-.2200317 0-.4474716 0-.6675034-.0075932-.0759354 0-.2124367-.0303745-.2807808 0-.2048454.0683422-.3565331.470438-.4096909.6525002-.174469.6221275.2655945 1.2440681.6980667 1.6461639.0757484.0683422.1592789.1668739.2654076.2124367.1366844.0607491.3111534.0455627.4400635.121315.3033752.1820641.2807808.5917511.6600952.6600952.4854393.0909386 1.2972221.0301895 1.5322571.5917511.0455627.1061249.0379677.2426262.0835304.3565331.0607491.174469.1592827.2730026.2729988.4172821.1594696.2048454.1366882.4398766.2959671.6599083.2578201.3641281.6675034.6373138.9786606.9558792.2124405.2200317.417099.3641281.7130661.4400635.5765686.1516876 1.2592545.0607491 1.8434143.0681572.3945007 0 .7586288-.0757523 1.1607208-.0757523h5.1662979c.2200317 0 .3717194.0379677.5385971-.1063118.2048416-.1820602.3337555-.4930344.3945007-.7510338.0303726-.1516876.053154-.3261566.0379715-.4854393-.0227814-.2200317-.121315-.3565331-.2200317-.5461884-.1668777-.3337517-.0683441-.7965965-.0759354-1.1683159 0-.2959709 0-.3717194.159462-.6297226.0529709-.0681572.0757523-.1289062.1289062-.1972504.1668777-.1972504.424881-.2428131.6297226-.3945007.2274399-.1668758.2122574-.348938.2048416-.6069393-.0077744-.2730007-.0077744-.5460033-.0077744-.8267841 0-.1366863-.0301895-.3033772-.0074081-.4400635.0529709-.3109703.2805939-.4400635.2274399-.7814083-.0075912-.0833454-.0757523-.4854412-.1896591-.591753-.0529709-.052969-.2730026-.0833454-.3185654-.1061249-.2200317-.0987186-.523407-.3413467-.5385971-.5993462-.0151825-.235033.1972504-.6069393.2276306-.8571606.0149994-.1594677.0075912-.3261585.0075912-.4856243 0-.2350349.0074081-.4854412 0-.7282543-.0075912-.5537815-.6145325-.6221256-.9862518-.9179096-.1365051-.1061249-.3641281-.3187485-.4096909-.5006275-.0455627-.2048435.1972504-.4248753.348938-.5463734.2200317-.1744709.3945007-.1668758.652504-.1592827.2048416.0075932.4778442-.0681572.6599121.0379677.5385971.3035622.3261566 1.1607227.3261566 1.6537571 0 .2048435-.068161.5537834.0077744.7512188.068161.1666908.3033829.3185635.4246979.4474716.1668701.174469.280777.2655945.5385895.295969.1896591.0301895.4096909.0377827.6069412.0225945.2580032-.0151863.4476547-.1137199.4476547-.3867207-.0075912-.2655945-.1290894-.5387821-.348938-.6828766-.2504044-.174469-.402092-.3261585-.5461884-.5993462-.1366882-.2502213-.0835266-.523407-.0835266-.8040028 0-.1366863-.075943-.4856262.0607452-.5841599.1061249-.0683422.5310059-.0077782.644722-.0077782.227623.0077782.5537872.0303745.7586288.1594677.1440964.0909386.1896591.2654076.3185654.3413448.3111572.2048454.7664032.1061268 1.1153412.0911255.4474716-.0151882.7054749.235033 1.016449.5385952.1820602.174469.3415298.3185635.4248734.5611916.1668777.4628448.4628448.8117828.8193741 1.1457195.3261566.3109722.4778519.7130661.7890015 1.0392246.2200317 0 .2881927.0759373.5082245.0683422.3793106-.0075932.4400635.0455627.6221237.3717213.0833511.1592808.1972504.3033772.3261566.4246902.0531616.0759373.1061325.1594677.1516953.235218.2504044.1366863.576561-.2957821.6828766-.470253.1364975-.2048435.1592789-.3717194.1668701-.6145325 0-.1365013-.0835266-.4476566-.0379639-.5537834.1668701-.409687.9710617-.3717194 1.3048172-.3565311.1668701 0 .5158157.0909386.5993423-.0987186-.1139065-.2046578-.1668774-.2881882-.3869091-.3641255z"/><path d="m12.3331661 49.7913628c.2655935.1516876.4476566.0985336.6221256-.1820641.1365013-.227623.235219-.4552498.3945017-.6676865.3489389-.4778481.7510338-.5385971 1.3124104-.5385971.121314 0 .2655945-.0303726.3869076.0151863.1668758.0531578.235219.1972504.4248762.2276268.5006275.0985336.9936619.0985336 1.4868793.0227814.417284-.0683441.6295357-.409687.8723488-.7360306.3111553-.4246941.5461903-.940506.6676884-1.4565086.0757523-.3109703.0607491-.6297188.0529709-.9406891-.0074081-.4020958.1063118-.5765648.2276249-.9330978.0683441-.227623.1820641-.470253.1972504-.697876.0151882-.3187523-.0757523-.652504.0835304-.9406929.0985336-.174469.2502213-.3033752.3337517-.4856262.1289082-.2502213.2883759-.531002.3869076-.7890015.0303745-.0909386.0303745-.1970634.0683441-.2881889.0757504-.1820641.1820621-.3109703.2046585-.5158157.0229664-.174469-.0377827-.3641243-.0225964-.5387802.0225964-.2198448.1592827-.4170952.1820641-.6371269.0227814-.1592827-.0227814-.3261604-.0075951-.4856262.060751-.6675034.3717213-1.3653831.5993462-1.9799156.1137199-.3033752.235033-.5008125.470253-.7282524.2124386-.2048454.4932194-.409687.6373138-.6752815.1516876-.2805977.1592827-.6371307.2805958-.9406929.1214981-.2957802.3261585-.4854393.5461903-.7130623.2048435-.2200317.348938-.4476585.4856243-.7206612.1516895-.3033752.3717213-.5008125.6145325-.7434387.2122536-.2048454.4854412-.4096909.5993462-.6826935.0833454-.1822472.0833454-.3944988.1440945-.584156.060564-.1974354.0833454-.3719063.1137199-.5689716.0455627-.3641262.1896572-.644907.3565331-.9634705.1290932-.2428131.1063118-.591753.2807808-.7890034.2048454-.2428131.5461903-.4552498.7965965-.644907.2881889-.2124386.531002-.470438.7888165-.7130661.1896572-.1820621.3643112-.3337517.5084076-.5537834.174469-.2731876.3717194-.4930325.5613766-.7510338.1516876-.1896572.1896572-.4932194.3945007-.6373138.2124386-.1516876.6219406-.0379677.7358456-.2881889.0227814-.0531559 0-.1214981.0151882-.174469.0303745-.0987186.1061268-.1974354.1440945-.3035622.1516895-.4172821.0607491-.8723488.1896572-1.297224.0531559-.1972504.1440945-.4324703.2578144-.5993462.1290932-.174469.3870926-.3109703.4628448-.523407.0303745-.1061268.0075932-.2805958.0227814-.3945026.0227814-.1440945.0683422-.2504063.1063118-.3945007.0529709-.2276249.0757504-.3869076.2198467-.5841579.0987167-.1516876.2048435-.2957821.3035622-.4476566.1364994-.2048435.2730007-.3945007.3641262-.6219406.1061249-.2428131.235218-.531189.235218-.8041897 0-.1440964-.0531559-.3033772.0151882-.4400635.0985317-.2122536.3943157-.3109703.5537815-.470253.2048454-.1972504.3715363-.3945007.591568-.5765648.2504044-.2048435.4400635-.4476566.6145325-.7056561-11.447571 6.7594889-19.4815037 18.6926859-20.8850386 32.5832003z"/></g><path d="m37.51194 39.1525459c-8.9341469 8.9341469-8.9343052 23.4191093-.0001564 32.35326s23.419426 8.9343033 32.3535728.0001526 8.9339905-23.4194221-.0001602-32.3535728-23.4191055-8.9339905-32.3532562.0001602z" fill="#ededed" opacity=".25"/><path d="m72.074982 70.838142h6.181621v11.613955h-6.181621z" fill="#19282f" transform="matrix(.707 -.707 .707 .707 -32.181 75.599)"/><path d="m70.9979553 81.7702713 15.116684 15.1166763c2.4598618 2.4598618 6.4478912 2.4597015 8.907753-.0001602s2.460022-6.4478912.0001602-8.907753l-15.116684-15.1166763z" fill="#cd5248"/><path d="m35.0438538 36.5171165c-10.3441067 10.3441048-10.3502541 27.1189728-.0062943 37.4629326 10.3442535 10.3442536 27.1253433 10.3443299 37.4694519.0002213 10.3440704-10.3440704 10.3379593-27.1191216-.0063019-37.4633789-10.343956-10.3439579-27.1127853-10.3438454-37.4568557.000225zm33.7379913 33.7379876c-8.2874184 8.2874146-21.7317429 8.287384-30.0192337-.0001068-8.2871933-8.2871971-8.2872295-21.7315216.0001869-30.01894 8.2873802-8.2873783 21.7317047-8.2873402 30.0188942-.000145 8.2874908 8.2874871 8.287529 21.7318154.0001526 30.0191918z" fill="#467082"/><path d="m79.8838654 71.9272614-9.8209534 9.8209534c-.3023834.3023834-.3024979.7924728-.0000381 1.0949249l1.4782181 1.4782181c.3021622.3021622.7925415.3023453 1.0949249-.0000381l9.8209534-9.8209534c.3023834-.3023834.3022003-.7927628.0000381-1.0949249l-1.4782181-1.4782181c-.3024597-.3024522-.7925415-.3023454-1.0949249.0000381z" fill="#de594e"/></svg>